_________________________  Visit us at _________________________
  
http://p2pdl.com  ____________________________  http://p2pdl.com


Django Unchained 2012 BRRip 720p x264 AAC - PRiSTiNE

Genre: Adventure | Crime | Drama | Western
Plot: With the help of a German bounty hunter, 
a freed slave sets out to rescue his wife from 
a brutal Mississippi plantation owner.
Director: Quentin Tarantino
Stars: Jamie Foxx, Christoph Waltz, Leonardo DiCaprio
Rated: Rated R for strong graphic violence throughout, a vicious fight, language and some nudity

Info: 
http://www.imdb.com/title/tt1853728/

General
Complete name                  : Django Unchained 2012 BRRip 720p x264 AAC - PRiSTiNE.mp4
Format                         : MPEG-4
Format profile                 : Base Media
Codec ID                       : isom
File size                      : 949 MiB
Duration                       : 2h 45mn
Overall bit rate mode          : Variable
Overall bit rate               : 802 Kbps

Source                         : 720p BluRay SPARKS (Thanks)

Video
Format                         : AVC
Format/Info                    : Advanced Video Codec
Format profile                 : High@L4.1
Bit rate                       : 715 Kbps
Width                          : 1 280 pixels
Height                         : 536 pixels
Display aspect ratio           : 2.40:1
Frame rate mode                : Constant
Frame rate                     : 23.976 fps
Color space                    : YUV
Chroma subsampling             : 4:2:0
Bit depth                      : 8 bits
Scan type                      : Progressive
Bits/(Pixel*Frame)             : 0.043
Stream size                    : 846 MiB (89%)
Writing library                : x264 core 129 r2245 bc13772

Audio
Format                         : AAC
Bit rate                       : 84.0 Kbps
Channel(s)                     : 2 channels
Channel positions              : Front: L R
Sampling rate                  : 48.0 KHz / 24.0 KHz
Stream size                    : 99.3 MiB (10%)
Language                       : English

Subtitle                       : Yes (English)

Screens: 
http://imgr.us/images/a6cj6bs9e31504cjys.jpg 
http://imgr.us/images/wqs1rqkq6hy4cmn675pn.jpg 
http://imgr.us/images/nsphflyboj8058mxr6i.jpg 
http://imgr.us/images/6lwfiqkbwh6k48uo3g9.jpg 
http://imgr.us/images/6bz7rl9ikqdeyn9ro9hi.jpg 
http://imgr.us/images/ze119xhtxssl8uulbnt.jpg
----------------------------------------------------------------------------------------------------
Recommend to you to use latest version of VLC player. Install K-Lite Codec Pack or shark007 codecs
in case of any kind of problem in playback (For non-VLC Media Player users). Alternatively, install
Core AVC codecs, the fastest decoder that there is coupled with Community Center Codec Pack and play
on Windows Media Player Classic. Check sample to be sure.
Enjoy!

Encoder Notes:Looking For Early Access To Anything You Can Provide DVDScr, R5, DVDR, BluRay, Direct
Audio, Music Releases and Seedboxes. We require dedicated servers, so as to do more 
and fast releases of movies.
If You Got anything to offer please contact us at "prg@hush.com".
Fan Page: www.fb.me/p2pdl